# xmcd CD database file
#
# Track frame offsets:
#	150
#	20776
#	42895
#	61243
#	76657
#	106316
#	132455
#	163776
#	186167
#	209785
#	236760
#	257847
#	279132
#	299346
#
# Disc length: 4457 seconds
#
# Revision: 2
# Processed by: cddbd v1.5.2PL0 Copyright (c) Steve Scherf et al.
# Submitted via: CDex 1.51
#
DISCID=ce11670e
DTITLE=Agatha Christie - Die Schattenhand
DYEAR=2010
DGENRE=Hörbuch
TTITLE0=Die Schattenhand 16
TTITLE1=Die Schattenhand 17
TTITLE2=Die Schattenhand 18
TTITLE3=Die Schattenhand 19
TTITLE4=Die Schattenhand 20
TTITLE5=Die Schattenhand 21
TTITLE6=Die Schattenhand 22
TTITLE7=Die Schattenhand 23
TTITLE8=Die Schattenhand 24
TTITLE9=Die Schattenhand 25
TTITLE10=Die Schattenhand 26
TTITLE11=Die Schattenhand 27
TTITLE12=Die Schattenhand 28
TTITLE13=Die Schattenhand 29
EXTD=YEAR: 2010
EXTT0=
EXTT1=
EXTT2=
EXTT3=
EXTT4=
EXTT5=
EXTT6=
EXTT7=
EXTT8=
EXTT9=
EXTT10=
EXTT11=
EXTT12=
EXTT13=
PLAYORDER=
